# xmcd CD database file
#
# Track frame offsets:
#	150
#	13737
#	30500
#	47237
#	66057
#	78625
#	95537
#	111792
#	129532
#	144225
#	158137
#	169762
#	187025
#	204345
#	217205
#	230200
#	243450
#	265362
#	286357
#	301287
#
# Disc length: 4254 seconds
#
# Revision: 0
# Processed by: cddbd v1.5PL3 Copyright (c) Steve Scherf et al.
# Submitted via: CDex 1.50
#
DISCID=28109c14
DTITLE=The Carpenters - THE COLLECTION OF MASTERPIECES
DYEAR=2003
DGENRE=Pop
TTITLE0=Top Of The World
TTITLE1=(They Long To Be)Close To You
TTITLE2=Jambalaya(On The Bayou)
TTITLE3=We've Only Just Begun
TTITLE4=Hurting Each Other
TTITLE5=Superstar
TTITLE6=Rainy Days And Mondays
TTITLE7=Goodbye To Love
TTITLE8=Bless The Beasts And The Children
TTITLE9=Help
TTITLE10=For All We Know
TTITLE11=I Won't Last A Day Without You
TTITLE12=Only Yesterday
TTITLE13=Please Mr.Postman
TTITLE14=Baby It's You
TTITLE15=It's Going To Take Some Time
TTITLE16=This Masquerade
TTITLE17=A Song For You
TTITLE18=Sing
TTITLE19=Yesterday Once More
EXTD=YEAR: 2003
EXTT0=
EXTT1=
EXTT2=
EXTT3=
EXTT4=
EXTT5=
EXTT6=
EXTT7=
EXTT8=
EXTT9=
EXTT10=
EXTT11=
EXTT12=
EXTT13=
EXTT14=
EXTT15=
EXTT16=
EXTT17=
EXTT18=
EXTT19=
PLAYORDER=
